# xmcd
#
# Track frame offsets: 
#        150
#        4375
#        18646
#        33096
#        45751
#        51675
#        63778
#        84793
#        97222
#        108552
#        114568
#        124615
#        134214
#        145415
#        154553
#        166438
#        180606
#        194277
#        206614
#        218203
#        231508
#        244894
#        255732
#        267134
#        281586
#        293637
#        305151
#        316241
#        326726
#        337484
#
# Disc length: 4639 seconds
#
# Revision: 0
# Processed by: cddbd v1.5.2PL0 Copyright (c) Steve Scherf et al.
# Submitted via: ExactAudioCopy v1.1
#
DISCID=ce121d1e
DTITLE=Various Artist - Louisiana Hayride_CD01
DYEAR=2017
DGENRE=Country
TTITLE0=W. K. ("Old Man") Henderson - Hello World
TTITLE1=John McGhee with Frank Welling - Hello World, Doggone
TTITLE2=Blind Andy (Jenkins) - Hello World Song (Don't You Go 'Way)
TTITLE3=Jimmie Davis (probably) - Hello World Doggone
TTITLE4=Johnnie and Jack - Raining On The Mountain
TTITLE5=Kitty Wells - The Singing Waterfall
TTITLE6=Johnnie and Jack - Little Cabin Home On The Hill
TTITLE7=Kitty Wells - Love Or Hate
TTITLE8=Kitty Wells, Johnnie Wright and Hank Williams - Dear Brother
TTITLE9=Curley Williams and Hank Williams - Time Has Proven I Was Wrong
TTITLE10=Curley Williams and Hank Williams - No Not Now
TTITLE11=Hank Williams - My Bucket's Got A Hole In It
TTITLE12=Tex Grimsley and the Texas Playboys - Walking The Dog
TTITLE13=Shot Jackson (Webb Pierce: vocal) - I Need You Like A Hole In
TTITLE13=The Head
TTITLE14=Webb Pierce - I've Loved You Forever It Seems
TTITLE15=Buddy Attaway - Freight Train Blues
TTITLE16=Tillman Franks (Webb Pierce: vocal) - California Blues
TTITLE17=Tillman Franks (Webb Pierce: vocal) - Hayride Boogie
TTITLE18=Webb Pierce - I Got Religion Saturday Night
TTITLE19=Tillman Franks (Faron Young: vocal) - Hi Tone Poppa
TTITLE20=Mac Wiseman - 'Tis Sweet To Be Remembered
TTITLE21=Claude King - She Knows Why
TTITLE22=Shot Jackson - If The Truth Was Known
TTITLE23=Slim Whitman - Indian Love Call
TTITLE24=Jim Reeves - Mexican Joe
TTITLE25=Mitchell Torok - Caribbean
TTITLE26=Carolyn Bradshaw - A Man On The Loose
TTITLE27=The Browns - Looking Back To See
TTITLE28=Jimmy and Johnny - If You Don't Somebody Else Will
TTITLE29=Slim Whitman - Rose Marie
EXTD=
EXTT0=
EXTT1=
EXTT2=
EXTT3=
EXTT4=
EXTT5=
EXTT6=
EXTT7=
EXTT8=
EXTT9=
EXTT10=
EXTT11=
EXTT12=
EXTT13=
EXTT14=
EXTT15=
EXTT16=
EXTT17=
EXTT18=
EXTT19=
EXTT20=
EXTT21=
EXTT22=
EXTT23=
EXTT24=
EXTT25=
EXTT26=
EXTT27=
EXTT28=
EXTT29=
PLAYORDER=
